# xmcd
#
# Track frame offsets:
#	150
#	16675
#	31947
#	47654
#	64174
#	79432
#	94148
#	109851
#	125214
#	138076
#	149906
#	165241
#
# Disc length: 2404 seconds
#
# Revision: 1
# Processed by: cddbd v1.5.2PL0 Copyright (c) Steve Scherf et al.
# Submitted via: audiograbber 1.83.01
#
DISCID=a409620c
DTITLE=Gabriela Cilmi - Lessons To Be Learned
DYEAR=2008
DGENRE=Pop
TTITLE0=Save The Lies
TTITLE1=Sweet About Me
TTITLE2=Sanctuary
TTITLE3=Einstein
TTITLE4=Got No Place To Go
TTITLE5=Don't Want To Go To Bed Now
TTITLE6=Awkward Game
TTITLE7=Safer
TTITLE8=Cigarettes And Lies
TTITLE9=Terrifying
TTITLE10=Sit In The Blues
TTITLE11=Echo Beach
EXTD=
EXTT0=
EXTT1=
EXTT2=
EXTT3=
EXTT4=
EXTT5=
EXTT6=
EXTT7=
EXTT8=
EXTT9=
EXTT10=
EXTT11=
PLAYORDER=
